<svg width="328" height="199" viewBox="0 0 328 199" fill="none" xmlns="http://www.w3.org/2000/svg">
<rect x="0.5" y="0.5" width="327" height="198" rx="11.5" fill="#E8DDF3"/>
<rect x="0.5" y="0.5" width="327" height="198" rx="11.5" stroke="#65004A"/>
<path d="M172.784 81.1531C178.218 81.1531 182.727 76.7594 182.727 71.2094C182.727 65.6594 178.334 61.2656 172.784 61.2656C167.234 61.2656 162.84 65.8906 162.84 71.325C162.84 76.7594 167.349 81.1531 172.784 81.1531ZM172.784 66.5844C175.327 66.5844 177.524 68.6656 177.524 71.325C177.524 73.9844 175.443 76.0656 172.784 76.0656C170.124 76.0656 168.043 73.9844 168.043 71.325C168.043 68.6656 170.124 66.5844 172.784 66.5844Z" fill="#65004A"/>
<path d="M187.932 46.5811H140.063C136.132 46.5811 132.895 49.8186 132.895 53.7498V109.25C132.895 113.181 136.132 116.534 140.179 116.534H187.932C191.863 116.534 195.216 113.297 195.216 109.25V53.7498C195.101 49.8186 191.863 46.5811 187.932 46.5811ZM140.063 51.7842H187.816C188.973 51.7842 189.898 52.7092 189.898 53.8654V94.2186L181.457 87.2811C179.029 85.3154 175.56 85.4311 173.363 87.6279L163.882 96.9936L151.741 86.1248C149.429 84.0436 145.96 84.0436 143.648 86.1248L138.098 91.0967V53.7498C138.098 52.5936 139.023 51.7842 140.063 51.7842ZM187.932 111.331H140.063C138.907 111.331 137.982 110.406 137.982 109.25V98.0342L147.001 89.8248C147.348 89.4779 147.81 89.4779 148.157 89.8248L162.148 102.312C162.61 102.775 163.304 103.006 163.882 103.006C164.576 103.006 165.154 102.775 165.732 102.197L176.948 91.0967C177.295 90.7498 177.757 90.7498 178.104 91.0967L189.782 100.809V109.25C189.898 110.406 188.973 111.331 187.932 111.331Z" fill="#65004A"/>
<path d="M118.499 140.673H108.862V130.998C108.862 130.548 108.487 130.136 107.999 130.136C107.549 130.136 107.137 130.511 107.137 130.998V140.673H97.4992C97.0492 140.673 96.6367 141.048 96.6367 141.536C96.6367 141.986 97.0117 142.398 97.4992 142.398H107.174V151.998C107.174 152.448 107.549 152.861 108.037 152.861C108.487 152.861 108.899 152.486 108.899 151.998V142.361H118.499C118.949 142.361 119.362 141.986 119.362 141.498C119.362 141.048 118.949 140.673 118.499 140.673Z" fill="#65004A"/>
<path d="M134.72 146.692C134.208 146.692 133.728 146.617 133.28 146.468C132.832 146.319 132.443 146.105 132.112 145.828C131.781 145.54 131.52 145.204 131.328 144.82C131.136 144.425 131.04 143.988 131.04 143.508V142.692C131.04 142.372 131.104 142.127 131.232 141.956C131.36 141.775 131.632 141.684 132.048 141.684H133.744V142.788H132.336V143.444C132.336 143.817 132.395 144.143 132.512 144.42C132.64 144.697 132.811 144.927 133.024 145.108C133.237 145.279 133.493 145.407 133.792 145.492C134.101 145.577 134.432 145.62 134.784 145.62C135.584 145.62 136.208 145.375 136.656 144.884C137.104 144.393 137.328 143.705 137.328 142.82V141.508C137.328 140.612 137.083 139.919 136.592 139.428C136.112 138.927 135.44 138.676 134.576 138.676C133.915 138.676 133.344 138.809 132.864 139.076C132.384 139.343 132.005 139.7 131.728 140.148L130.896 139.412C131.195 138.889 131.648 138.452 132.256 138.1C132.875 137.748 133.669 137.572 134.64 137.572C135.931 137.572 136.928 137.977 137.632 138.788C138.347 139.588 138.704 140.703 138.704 142.132C138.704 142.825 138.619 143.455 138.448 144.02C138.277 144.585 138.021 145.065 137.68 145.46C137.349 145.855 136.933 146.159 136.432 146.372C135.941 146.585 135.371 146.692 134.72 146.692ZM136.765 136.052C136.285 136.052 135.933 135.935 135.709 135.7C135.485 135.465 135.373 135.156 135.373 134.772V133.78H136.653V134.948H140.733V136.052H136.765ZM144.584 146.692C143.454 146.692 142.563 146.388 141.912 145.78C141.262 145.161 140.936 144.319 140.936 143.252V137.764H142.216V143.124C142.216 143.924 142.424 144.537 142.84 144.964C143.267 145.38 143.848 145.588 144.584 145.588C145.32 145.588 145.896 145.38 146.312 144.964C146.739 144.537 146.952 143.924 146.952 143.124V134.948H148.232V143.252C148.232 144.319 147.907 145.161 147.256 145.78C146.606 146.388 145.715 146.692 144.584 146.692ZM152.826 146.5C152.367 146.5 152.02 146.377 151.786 146.132C151.562 145.887 151.45 145.561 151.45 145.156V136.388L149.466 135.524V135.3C149.466 134.873 149.535 134.489 149.674 134.148C149.823 133.807 150.026 133.519 150.282 133.284C150.538 133.039 150.842 132.852 151.194 132.724C151.556 132.596 151.956 132.532 152.394 132.532C153.023 132.532 153.54 132.628 153.946 132.82C154.351 133.012 154.692 133.268 154.97 133.588L154.154 134.356C153.983 134.153 153.759 133.977 153.482 133.828C153.215 133.679 152.879 133.604 152.474 133.604C151.994 133.604 151.572 133.711 151.21 133.924C150.858 134.137 150.66 134.479 150.618 134.948L152.09 135.556C152.324 135.652 152.49 135.775 152.586 135.924C152.682 136.063 152.73 136.276 152.73 136.564V145.38H154.074V146.5H152.826ZM156.016 137.764H157.296V140.564L159.68 140.212C160.15 140.137 160.534 140.009 160.832 139.828C161.131 139.636 161.307 139.305 161.36 138.836L161.488 137.764H162.832L162.704 138.868C162.651 139.369 162.464 139.769 162.144 140.068C161.824 140.367 161.414 140.553 160.912 140.628V140.708C161.968 140.996 162.56 141.812 162.688 143.156L163.008 146.5H161.664L161.36 143.076C161.328 142.809 161.27 142.559 161.184 142.324C161.099 142.089 160.971 141.892 160.8 141.732C160.63 141.561 160.411 141.444 160.144 141.38C159.888 141.305 159.574 141.295 159.2 141.348L157.296 141.62V146.5H156.016V137.764ZM168.014 146.66C167.128 146.66 166.424 146.441 165.902 146.004C165.379 145.567 165.118 144.932 165.118 144.1C165.118 143.289 165.374 142.665 165.886 142.228C166.408 141.791 167.118 141.572 168.014 141.572H170.798V140.74C170.798 139.364 170.046 138.676 168.542 138.676C167.902 138.676 167.363 138.809 166.926 139.076C166.499 139.332 166.152 139.689 165.886 140.148L165.07 139.428C165.347 138.905 165.774 138.468 166.35 138.116C166.926 137.753 167.678 137.572 168.606 137.572C169.715 137.572 170.568 137.849 171.166 138.404C171.774 138.948 172.078 139.705 172.078 140.676V146.5H170.798V142.484H168.302C167.726 142.484 167.278 142.607 166.958 142.852C166.638 143.097 166.478 143.444 166.478 143.892V144.26C166.478 144.74 166.622 145.108 166.91 145.364C167.208 145.609 167.608 145.732 168.11 145.732C168.259 145.732 168.382 145.727 168.478 145.716C168.584 145.705 168.67 145.695 168.734 145.684L168.846 146.564C168.782 146.596 168.659 146.617 168.478 146.628C168.307 146.649 168.152 146.66 168.014 146.66ZM178.063 146.692C177.466 146.692 176.933 146.585 176.463 146.372C176.005 146.159 175.615 145.86 175.295 145.476C174.975 145.081 174.73 144.601 174.559 144.036C174.399 143.471 174.319 142.836 174.319 142.132C174.319 141.449 174.415 140.825 174.607 140.26C174.799 139.695 175.071 139.215 175.423 138.82C175.786 138.425 176.223 138.121 176.735 137.908C177.247 137.684 177.823 137.572 178.463 137.572C179.039 137.572 179.562 137.657 180.031 137.828C180.511 137.999 180.917 138.244 181.247 138.564C181.589 138.873 181.85 139.252 182.031 139.7C182.213 140.137 182.303 140.628 182.303 141.172V146.5H181.023V141.348C181.023 140.505 180.789 139.849 180.319 139.38C179.861 138.911 179.226 138.676 178.415 138.676C177.562 138.676 176.895 138.937 176.415 139.46C175.935 139.972 175.695 140.671 175.695 141.556V142.708C175.695 143.647 175.909 144.361 176.335 144.852C176.762 145.343 177.418 145.588 178.303 145.588C178.421 145.588 178.538 145.588 178.655 145.588C178.783 145.577 178.911 145.556 179.039 145.524L179.199 146.596C179.018 146.649 178.826 146.676 178.623 146.676C178.421 146.687 178.234 146.692 178.063 146.692ZM184.762 145.38H185.786V141.508L184.426 140.932C184.458 140.441 184.575 139.993 184.778 139.588C184.991 139.172 185.263 138.815 185.594 138.516C185.935 138.217 186.33 137.988 186.778 137.828C187.237 137.657 187.733 137.572 188.266 137.572C189.493 137.572 190.426 137.887 191.066 138.516C191.717 139.135 192.042 139.977 192.042 141.044V146.5H190.762V141.204C190.762 140.372 190.533 139.743 190.074 139.316C189.626 138.889 189.034 138.676 188.298 138.676C187.647 138.676 187.077 138.825 186.586 139.124C186.095 139.423 185.775 139.833 185.626 140.356L186.41 140.676C186.645 140.772 186.81 140.884 186.906 141.012C187.013 141.14 187.066 141.321 187.066 141.556V145.156C187.066 145.561 186.954 145.887 186.73 146.132C186.506 146.377 186.17 146.5 185.722 146.5H184.762V145.38ZM198.34 140.5C198.34 139.273 197.705 138.66 196.436 138.66C195.924 138.66 195.503 138.772 195.172 138.996C194.852 139.22 194.58 139.519 194.356 139.892L193.572 139.204C193.817 138.735 194.175 138.345 194.644 138.036C195.124 137.727 195.748 137.572 196.516 137.572C197.519 137.572 198.287 137.817 198.82 138.308C199.353 138.799 199.62 139.492 199.62 140.388V146.5H198.34V140.5ZM201.742 137.764H203.006L203.582 141.892L203.87 145.108H203.934L204.75 141.892L205.934 137.764H207.086L208.286 141.892L209.086 145.108H209.166L209.454 141.892L210.014 137.764H211.294L210.014 146.5H208.558L207.15 141.652L206.526 139.204H206.478L205.854 141.652L204.446 146.5H203.022L201.742 137.764ZM217.209 146.692C216.079 146.692 215.188 146.388 214.537 145.78C213.887 145.161 213.561 144.319 213.561 143.252V137.764H214.841V143.124C214.841 143.924 215.049 144.537 215.465 144.964C215.892 145.38 216.473 145.588 217.209 145.588C217.945 145.588 218.521 145.38 218.937 144.964C219.364 144.537 219.577 143.924 219.577 143.124V134.948H220.857V143.252C220.857 144.319 220.532 145.161 219.881 145.78C219.231 146.388 218.34 146.692 217.209 146.692ZM224.285 141.508L222.925 140.932C222.957 140.441 223.074 139.993 223.277 139.588C223.49 139.172 223.767 138.815 224.109 138.516C224.45 138.217 224.845 137.988 225.293 137.828C225.751 137.657 226.247 137.572 226.781 137.572C228.029 137.572 228.983 137.887 229.645 138.516C230.306 139.135 230.637 139.977 230.637 141.044V146.5H229.357V141.204C229.357 140.372 229.122 139.743 228.653 139.316C228.194 138.889 227.586 138.676 226.829 138.676C226.498 138.676 226.183 138.719 225.885 138.804C225.597 138.879 225.335 138.991 225.101 139.14C224.866 139.279 224.663 139.455 224.493 139.668C224.322 139.871 224.199 140.1 224.125 140.356L224.925 140.676C225.149 140.761 225.309 140.873 225.405 141.012C225.511 141.14 225.565 141.321 225.565 141.556V146.5H224.285V141.508Z" fill="#65004A"/>
</svg>
